<?xml version="1.0" encoding="UTF-8"?>
<svg width="700" height="500" viewBox="0 0 700 500" xmlns="http://www.w3.org/2000/svg">
  <!-- Background with gradient -->
  <defs>
    <linearGradient id="bgGradient" x1="0%" y1="0%" x2="100%" y2="100%">
      <stop offset="0%" stop-color="#f1f5f9" />
      <stop offset="100%" stop-color="#f8fafc" />
    </linearGradient>
    <linearGradient id="accentGradient" x1="0%" y1="0%" x2="100%" y2="100%">
      <stop offset="0%" stop-color="#7c3aed" />
      <stop offset="100%" stop-color="#c026d3" />
    </linearGradient>
    <linearGradient id="blueGradient" x1="0%" y1="0%" x2="100%" y2="100%">
      <stop offset="0%" stop-color="#0ea5e9" />
      <stop offset="100%" stop-color="#38bdf8" />
    </linearGradient>
  </defs>
  
  <rect width="700" height="500" fill="url(#bgGradient)" rx="20" />
  
  <!-- Abstract background shapes -->
  <circle cx="150" cy="120" r="80" fill="#7c3aed" opacity="0.1" />
  <circle cx="550" cy="380" r="100" fill="#0ea5e9" opacity="0.1" />
  <circle cx="400" cy="150" r="60" fill="#c026d3" opacity="0.05" />
  
  <!-- Website Mockup -->
  <rect x="100" y="100" width="250" height="300" rx="10" fill="white" stroke="#e2e8f0" stroke-width="2" />
  
  <!-- Browser Header -->
  <rect x="100" y="100" width="250" height="30" rx="10" fill="#f1f5f9" stroke="#e2e8f0" stroke-width="0" />
  <circle cx="120" cy="115" r="5" fill="#f87171" />
  <circle cx="140" cy="115" r="5" fill="#fbbf24" />
  <circle cx="160" cy="115" r="5" fill="#34d399" />
  <rect x="180" y="108" width="120" height="14" rx="7" fill="#e2e8f0" />
  
  <!-- Mock Content -->
  <!-- Header -->
  <rect x="115" y="145" width="170" height="20" rx="2" fill="#7c3aed" opacity="0.8" />
  <rect x="115" y="175" width="220" height="8" rx="2" fill="#e2e8f0" />
  <rect x="115" y="190" width="180" height="8" rx="2" fill="#e2e8f0" />
  
  <!-- Button -->
  <rect x="115" y="215" width="90" height="25" rx="5" fill="#0ea5e9" />
  
  <!-- Image placeholder -->
  <rect x="115" y="255" width="220" height="110" rx="5" fill="#f1f5f9" />
  <line x1="155" y1="275" x2="295" y2="345" stroke="#e2e8f0" stroke-width="2" />
  <line x1="295" y1="275" x2="155" y2="345" stroke="#e2e8f0" stroke-width="2" />
  
  <!-- AI Optimization graphics -->
  <!-- AI Brain Network -->
  <circle cx="450" cy="150" r="70" fill="none" stroke="url(#accentGradient)" stroke-width="2" />
  <circle cx="450" cy="150" r="45" fill="none" stroke="url(#accentGradient)" stroke-width="2" />
  <circle cx="450" cy="150" r="20" fill="url(#accentGradient)" opacity="0.5" />
  
  <!-- Connection Lines -->
  <line x1="380" y1="150" x2="350" y2="150" stroke="#7c3aed" stroke-width="2" />
  <line x1="450" y1="80" x2="450" y2="50" stroke="#7c3aed" stroke-width="2" />
  <line x1="520" y1="150" x2="550" y2="150" stroke="#7c3aed" stroke-width="2" />
  <line x1="450" y1="220" x2="450" y2="250" stroke="#7c3aed" stroke-width="2" />
  
  <!-- Data points -->
  <circle cx="380" cy="150" r="6" fill="#7c3aed" />
  <circle cx="450" cy="80" r="6" fill="#7c3aed" />
  <circle cx="520" cy="150" r="6" fill="#7c3aed" />
  <circle cx="450" cy="220" r="6" fill="#7c3aed" />
  
  <!-- Analytics Graphic -->
  <rect x="400" y="280" width="200" height="120" rx="10" fill="white" stroke="#e2e8f0" stroke-width="2" />
  
  <!-- Chart Title -->
  <rect x="415" y="295" width="100" height="10" rx="2" fill="#64748b" opacity="0.7" />
  
  <!-- Chart Bars -->
  <rect x="425" y="325" width="15" height="60" rx="2" fill="#0ea5e9" opacity="0.3" />
  <rect x="450" y="345" width="15" height="40" rx="2" fill="#0ea5e9" opacity="0.5" />
  <rect x="475" y="315" width="15" height="70" rx="2" fill="#0ea5e9" opacity="0.7" />
  <rect x="500" y="285" width="15" height="100" rx="2" fill="#0ea5e9" opacity="0.9" />
  <rect x="525" y="295" width="15" height="90" rx="2" fill="#0ea5e9" opacity="0.6" />
  <rect x="550" y="335" width="15" height="50" rx="2" fill="#0ea5e9" opacity="0.4" />
  
  <!-- Optimization Arrow -->
  <path d="M330 200 C 380 200, 400 270, 380 280 L 390 290 L 400 270 L 380 260 L 380 280" fill="#10b981" />
  
  <!-- Connecting Lines -->
  <path d="M300 150 Q 350 150, 400 150" fill="none" stroke="#7c3aed" stroke-width="2" stroke-dasharray="5,5" />
  <path d="M450 250 Q 450 290, 450 330" fill="none" stroke="#7c3aed" stroke-width="2" stroke-dasharray="5,5" />
  
  <!-- Text Labels -->
  <text x="410" y="160" font-family="Arial" font-size="12" fill="#7c3aed" font-weight="bold">AI Analysis</text>
  <text x="450" y="400" font-family="Arial" font-size="12" fill="#0ea5e9" font-weight="bold">Results</text>
  <text x="330" y="210" font-family="Arial" font-size="12" fill="#10b981" font-weight="bold">Optimize</text>
</svg>