<?xml version="1.0" encoding="UTF-8"?>
<svg width="700" height="500" viewBox="0 0 700 500" xmlns="http://www.w3.org/2000/svg">
  <!-- Background -->
  <rect width="700" height="500" fill="#f8fafc"/>
  
  <!-- Card Container -->
  <rect x="50" y="50" width="600" height="400" rx="15" fill="white" stroke="#e2e8f0" stroke-width="2"/>
  
  <!-- Header Section -->
  <text x="80" y="90" font-family="Arial" font-size="20" font-weight="bold" fill="#1e293b">SaaS Demo Conversion Growth</text>
  <text x="80" y="115" font-family="Arial" font-size="14" fill="#64748b">OptimizePrime AI Case Study Results</text>
  
  <!-- Chart Area -->
  <rect x="80" y="140" width="540" height="250" fill="white"/>
  
  <!-- Chart Grid -->
  <line x1="80" y1="390" x2="620" y2="390" stroke="#e2e8f0" stroke-width="1"/>
  <line x1="80" y1="330" x2="620" y2="330" stroke="#e2e8f0" stroke-width="1" stroke-dasharray="2"/>
  <line x1="80" y1="270" x2="620" y2="270" stroke="#e2e8f0" stroke-width="1" stroke-dasharray="2"/>
  <line x1="80" y1="210" x2="620" y2="210" stroke="#e2e8f0" stroke-width="1" stroke-dasharray="2"/>
  <line x1="80" y1="150" x2="620" y2="150" stroke="#e2e8f0" stroke-width="1" stroke-dasharray="2"/>
  
  <!-- Vertical Grid Lines -->
  <line x1="80" y1="140" x2="80" y2="390" stroke="#e2e8f0" stroke-width="1"/>
  <line x1="170" y1="140" x2="170" y2="390" stroke="#e2e8f0" stroke-width="1" stroke-dasharray="2"/>
  <line x1="260" y1="140" x2="260" y2="390" stroke="#e2e8f0" stroke-width="1" stroke-dasharray="2"/>
  <line x1="350" y1="140" x2="350" y2="390" stroke="#e2e8f0" stroke-width="1" stroke-dasharray="2"/>
  <line x1="440" y1="140" x2="440" y2="390" stroke="#e2e8f0" stroke-width="1" stroke-dasharray="2"/>
  <line x1="530" y1="140" x2="530" y2="390" stroke="#e2e8f0" stroke-width="1" stroke-dasharray="2"/>
  <line x1="620" y1="140" x2="620" y2="390" stroke="#e2e8f0" stroke-width="1"/>
  
  <!-- X-axis Labels -->
  <text x="80" y="410" font-family="Arial" font-size="12" text-anchor="middle" fill="#64748b">Week 0</text>
  <text x="170" y="410" font-family="Arial" font-size="12" text-anchor="middle" fill="#64748b">Week 1</text>
  <text x="260" y="410" font-family="Arial" font-size="12" text-anchor="middle" fill="#64748b">Week 2</text>
  <text x="350" y="410" font-family="Arial" font-size="12" text-anchor="middle" fill="#64748b">Week 3</text>
  <text x="440" y="410" font-family="Arial" font-size="12" text-anchor="middle" fill="#64748b">Week 4</text>
  <text x="530" y="410" font-family="Arial" font-size="12" text-anchor="middle" fill="#64748b">Week 5</text>
  <text x="620" y="410" font-family="Arial" font-size="12" text-anchor="middle" fill="#64748b">Week 6</text>
  
  <!-- Y-axis Labels -->
  <text x="70" y="390" font-family="Arial" font-size="12" text-anchor="end" fill="#64748b">0%</text>
  <text x="70" y="330" font-family="Arial" font-size="12" text-anchor="end" fill="#64748b">15%</text>
  <text x="70" y="270" font-family="Arial" font-size="12" text-anchor="end" fill="#64748b">30%</text>
  <text x="70" y="210" font-family="Arial" font-size="12" text-anchor="end" fill="#64748b">45%</text>
  <text x="70" y="150" font-family="Arial" font-size="12" text-anchor="end" fill="#64748b">60%</text>
  
  <!-- Chart Data - Bar Graph -->
  <!-- Week 0 -->
  <rect x="95" y="350" width="30" height="40" fill="#7c3aed" opacity="0.3"/>
  <rect x="95" y="350" width="30" height="40" fill="none" stroke="#7c3aed" stroke-width="1"/>
  
  <!-- Week 1 -->
  <rect x="185" y="340" width="30" height="50" fill="#7c3aed" opacity="0.3"/>
  <rect x="185" y="340" width="30" height="50" fill="none" stroke="#7c3aed" stroke-width="1"/>
  
  <!-- Week 2 -->
  <rect x="275" y="310" width="30" height="80" fill="#7c3aed" opacity="0.5"/>
  <rect x="275" y="310" width="30" height="80" fill="none" stroke="#7c3aed" stroke-width="1"/>
  
  <!-- Week 3 -->
  <rect x="365" y="270" width="30" height="120" fill="#7c3aed" opacity="0.6"/>
  <rect x="365" y="270" width="30" height="120" fill="none" stroke="#7c3aed" stroke-width="1"/>
  
  <!-- Week 4 -->
  <rect x="455" y="230" width="30" height="160" fill="#7c3aed" opacity="0.7"/>
  <rect x="455" y="230" width="30" height="160" fill="none" stroke="#7c3aed" stroke-width="1"/>
  
  <!-- Week 5 -->
  <rect x="545" y="190" width="30" height="200" fill="#7c3aed" opacity="0.8"/>
  <rect x="545" y="190" width="30" height="200" fill="none" stroke="#7c3aed" stroke-width="1"/>
  
  <!-- Week 6 -->
  <rect x="635" y="170" width="30" height="220" fill="#7c3aed" opacity="0.9"/>
  <rect x="635" y="170" width="30" height="220" fill="none" stroke="#7c3aed" stroke-width="1"/>
  
  <!-- Line Chart Data -->
  <polyline points="110,350 200,340 290,310 380,270 470,230 560,190 650,170" fill="none" stroke="#0ea5e9" stroke-width="3"/>
  <circle cx="110" cy="350" r="5" fill="#0ea5e9"/>
  <circle cx="200" cy="340" r="5" fill="#0ea5e9"/>
  <circle cx="290" cy="310" r="5" fill="#0ea5e9"/>
  <circle cx="380" cy="270" r="5" fill="#0ea5e9"/>
  <circle cx="470" cy="230" r="5" fill="#0ea5e9"/>
  <circle cx="560" cy="190" r="5" fill="#0ea5e9"/>
  <circle cx="650" cy="170" r="5" fill="#0ea5e9"/>
  
  <!-- Results Callout -->
  <rect x="440" y="140" width="180" height="60" rx="5" fill="#10b981" opacity="0.1"/>
  <text x="450" y="165" font-family="Arial" font-size="14" font-weight="bold" fill="#10b981">✓ 67% Increase</text>
  <text x="450" y="185" font-family="Arial" font-size="12" fill="#10b981">Demo Signups Growth</text>
  
  <!-- Legend -->
  <rect x="80" y="430" width="12" height="12" fill="#7c3aed" opacity="0.7"/>
  <text x="100" y="440" font-family="Arial" font-size="12" fill="#64748b">Weekly Conversion Rate</text>
  
  <circle cx="250" cy="436" r="5" fill="#0ea5e9"/>
  <text x="265" y="440" font-family="Arial" font-size="12" fill="#64748b">Trend Line</text>
</svg>